<svg xmlns="http://www.w3.org/2000/svg" xmlns:xlink="http://www.w3.org/1999/xlink" width="500" zoomAndPan="magnify" viewBox="0 0 375 374.999991" height="500" preserveAspectRatio="xMidYMid meet" version="1.0"><defs><g/><clipPath id="id1"><path d="M 62.109375 52.457031 L 312.609375 52.457031 L 312.609375 251.957031 L 62.109375 251.957031 Z M 62.109375 52.457031 " clip-rule="nonzero"/></clipPath></defs><g clip-path="url(#id1)"><path fill="#000000" d="M 292.953125 75.925781 L 253.84375 75.925781 C 251.691406 75.925781 249.933594 77.6875 249.933594 79.839844 C 249.933594 81.988281 251.691406 83.75 253.84375 83.75 L 292.953125 83.75 C 299.402344 83.75 304.683594 89.03125 304.683594 95.484375 L 304.683594 217.335938 L 261.664062 217.335938 C 259.515625 217.335938 257.753906 219.097656 257.753906 221.25 C 257.753906 223.398438 259.515625 225.160156 261.664062 225.160156 L 304.683594 225.160156 L 304.683594 232.398438 C 304.683594 238.851562 299.402344 244.132812 292.953125 244.132812 L 81.765625 244.132812 C 75.3125 244.132812 70.035156 238.851562 70.035156 232.398438 L 70.035156 225.160156 L 130.652344 225.160156 C 132.804688 225.160156 134.5625 223.398438 134.5625 221.25 C 134.5625 219.097656 132.804688 217.335938 130.652344 217.335938 L 70.035156 217.335938 L 70.035156 95.484375 C 70.035156 89.03125 75.3125 83.75 81.765625 83.75 L 136.519531 83.75 C 138.472656 83.75 140.234375 82.183594 140.429688 80.230469 L 140.429688 80.035156 C 140.429688 79.839844 140.429688 79.839844 140.429688 79.644531 C 140.429688 69.277344 148.835938 60.28125 158.417969 60.28125 L 216.105469 60.28125 C 226.078125 60.28125 234.289062 68.296875 234.289062 78.46875 L 234.289062 93.53125 C 234.289062 95.679688 236.050781 97.441406 238.199219 97.441406 C 240.351562 97.441406 242.109375 95.679688 242.109375 93.53125 L 242.109375 78.273438 C 242.109375 63.996094 230.574219 52.457031 216.300781 52.457031 L 158.613281 52.457031 C 157.832031 52.457031 157.050781 52.457031 156.269531 52.652344 C 143.949219 53.824219 133.976562 63.605469 132.804688 75.925781 L 81.765625 75.925781 C 71.011719 75.925781 62.214844 84.726562 62.214844 95.484375 L 62.214844 232.398438 C 62.214844 243.15625 71.011719 251.957031 81.765625 251.957031 L 292.953125 251.957031 C 303.707031 251.957031 312.503906 243.15625 312.503906 232.398438 L 312.503906 95.484375 C 312.503906 84.726562 303.707031 75.925781 292.953125 75.925781 Z M 292.953125 75.925781 " fill-opacity="1" fill-rule="nonzero"/></g><path fill="#000000" d="M 208.867188 75.925781 C 211.019531 75.925781 212.78125 74.167969 212.78125 72.015625 C 212.78125 69.863281 211.019531 68.101562 208.867188 68.101562 L 165.851562 68.101562 C 163.699219 68.101562 161.9375 69.863281 161.9375 72.015625 C 161.9375 74.167969 163.699219 75.925781 165.851562 75.925781 Z M 208.867188 75.925781 " fill-opacity="1" fill-rule="nonzero"/><path fill="#000000" d="M 81.765625 126.78125 L 81.765625 201.101562 C 81.765625 203.253906 83.527344 205.015625 85.679688 205.015625 C 87.828125 205.015625 89.589844 203.253906 89.589844 201.101562 L 89.589844 126.78125 C 89.589844 124.628906 87.828125 122.867188 85.679688 122.867188 C 83.527344 122.867188 81.765625 124.628906 81.765625 126.78125 Z M 81.765625 126.78125 " fill-opacity="1" fill-rule="nonzero"/><path fill="#000000" d="M 289.039062 205.015625 C 291.191406 205.015625 292.953125 203.253906 292.953125 201.101562 L 292.953125 126.78125 C 292.953125 124.628906 291.191406 122.867188 289.039062 122.867188 C 286.890625 122.867188 285.128906 124.628906 285.128906 126.78125 L 285.128906 201.101562 C 285.128906 203.253906 286.890625 205.015625 289.039062 205.015625 Z M 289.039062 205.015625 " fill-opacity="1" fill-rule="nonzero"/><path fill="#000000" d="M 150.207031 165.898438 C 150.207031 163.746094 148.445312 161.984375 146.296875 161.984375 C 144.144531 161.984375 142.386719 163.746094 142.386719 165.898438 C 142.386719 190.738281 162.527344 210.882812 187.359375 210.882812 C 212.191406 210.882812 232.332031 190.738281 232.332031 165.898438 C 232.332031 141.058594 212.191406 120.910156 187.359375 120.910156 C 185.792969 120.910156 184.425781 121.890625 183.839844 123.257812 C 183.253906 124.628906 183.644531 126.386719 184.621094 127.5625 L 192.640625 135.582031 C 194.203125 137.144531 196.550781 137.144531 198.113281 135.582031 C 199.484375 134.210938 199.679688 132.058594 198.503906 130.496094 C 213.5625 135.191406 224.511719 149.273438 224.511719 165.898438 C 224.511719 186.433594 207.890625 203.058594 187.359375 203.058594 C 166.828125 203.058594 150.207031 186.433594 150.207031 165.898438 Z M 150.207031 165.898438 " fill-opacity="1" fill-rule="nonzero"/><path fill="#000000" d="M 253.257812 169.808594 C 255.40625 169.808594 257.167969 168.046875 257.167969 165.898438 C 257.167969 127.367188 225.878906 96.070312 187.359375 96.070312 C 148.835938 96.070312 117.550781 127.367188 117.550781 165.898438 C 117.550781 204.429688 148.835938 235.722656 187.359375 235.722656 C 188.726562 235.722656 190.097656 234.941406 190.878906 233.570312 C 191.660156 232.203125 191.464844 230.636719 190.683594 229.464844 L 184.230469 220.074219 C 183.058594 218.316406 180.515625 217.921875 178.753906 219.097656 C 176.996094 220.269531 176.605469 222.8125 177.777344 224.574219 L 179.734375 227.3125 C 149.230469 223.398438 125.566406 197.386719 125.566406 165.898438 C 125.566406 131.667969 153.335938 103.894531 187.554688 103.894531 C 221.773438 103.894531 249.347656 131.667969 249.347656 165.898438 C 249.347656 168.046875 251.105469 169.808594 253.257812 169.808594 Z M 253.257812 169.808594 " fill-opacity="1" fill-rule="nonzero"/><path fill="#000000" d="M 210.824219 165.898438 C 210.824219 152.988281 200.265625 142.425781 187.359375 142.425781 C 174.453125 142.425781 163.894531 152.988281 163.894531 165.898438 C 163.894531 178.804688 174.453125 189.367188 187.359375 189.367188 C 200.265625 189.367188 210.824219 178.804688 210.824219 165.898438 Z M 171.714844 165.898438 C 171.714844 157.292969 178.753906 150.25 187.359375 150.25 C 195.964844 150.25 203.003906 157.292969 203.003906 165.898438 C 203.003906 174.503906 195.964844 181.542969 187.359375 181.542969 C 178.753906 181.542969 171.714844 174.503906 171.714844 165.898438 Z M 171.714844 165.898438 " fill-opacity="1" fill-rule="nonzero"/><path fill="#000000" d="M 281.21875 103.308594 L 265.574219 103.308594 C 263.425781 103.308594 261.664062 105.070312 261.664062 107.21875 C 261.664062 109.371094 263.425781 111.132812 265.574219 111.132812 L 281.21875 111.132812 C 283.371094 111.132812 285.128906 109.371094 285.128906 107.21875 C 285.128906 105.070312 283.371094 103.308594 281.21875 103.308594 Z M 281.21875 103.308594 " fill-opacity="1" fill-rule="nonzero"/><path fill="#000000" d="M 105.230469 68.101562 C 107.382812 68.101562 109.144531 66.34375 109.144531 64.191406 C 109.144531 62.039062 107.382812 60.28125 105.230469 60.28125 L 89.589844 60.28125 C 87.4375 60.28125 85.679688 62.039062 85.679688 64.191406 C 85.679688 66.34375 87.4375 68.101562 89.589844 68.101562 Z M 105.230469 68.101562 " fill-opacity="1" fill-rule="nonzero"/><g fill="#000000" fill-opacity="1"><g transform="translate(42.183175, 321.872792)"><g><path d="M 25.125 0.515625 C 19.1875 0.515625 14.5625 -1.179688 11.25 -4.578125 C 7.945312 -7.972656 6.296875 -12.847656 6.296875 -19.203125 L 6.296875 -44.515625 L 12.65625 -44.515625 L 12.65625 -19.453125 C 12.65625 -9.921875 16.832031 -5.15625 25.1875 -5.15625 C 29.25 -5.15625 32.363281 -6.328125 34.53125 -8.671875 C 36.695312 -11.023438 37.78125 -14.617188 37.78125 -19.453125 L 37.78125 -44.515625 L 43.9375 -44.515625 L 43.9375 -19.203125 C 43.9375 -12.804688 42.28125 -7.921875 38.96875 -4.546875 C 35.664062 -1.171875 31.050781 0.515625 25.125 0.515625 Z M 25.125 0.515625 "/></g></g></g><g fill="#000000" fill-opacity="1"><g transform="translate(92.455486, 321.872792)"><g><path d="M 44.953125 -44.515625 L 44.953125 0 L 39.75 0 L 13.03125 -33.203125 L 13.03125 0 L 6.671875 0 L 6.671875 -44.515625 L 11.890625 -44.515625 L 38.59375 -11.3125 L 38.59375 -44.515625 Z M 44.953125 -44.515625 "/></g></g></g><g fill="#000000" fill-opacity="1"><g transform="translate(144.062458, 321.872792)"><g><path d="M 24.03125 -44.515625 C 29.800781 -44.515625 34.335938 -43.132812 37.640625 -40.375 C 40.953125 -37.625 42.609375 -33.832031 42.609375 -29 C 42.609375 -24.164062 40.953125 -20.367188 37.640625 -17.609375 C 34.335938 -14.859375 29.800781 -13.484375 24.03125 -13.484375 L 13.03125 -13.484375 L 13.03125 0 L 6.671875 0 L 6.671875 -44.515625 Z M 23.84375 -19.015625 C 27.875 -19.015625 30.945312 -19.875 33.0625 -21.59375 C 35.1875 -23.3125 36.25 -25.78125 36.25 -29 C 36.25 -32.21875 35.1875 -34.6875 33.0625 -36.40625 C 30.945312 -38.125 27.875 -38.984375 23.84375 -38.984375 L 13.03125 -38.984375 L 13.03125 -19.015625 Z M 23.84375 -19.015625 "/></g></g></g><g fill="#000000" fill-opacity="1"><g transform="translate(189.949438, 321.872792)"><g><path d="M 6.671875 -44.515625 L 13.03125 -44.515625 L 13.03125 0 L 6.671875 0 Z M 6.671875 -44.515625 "/></g></g></g><g fill="#000000" fill-opacity="1"><g transform="translate(209.651589, 321.872792)"><g><path d="M 34.65625 0 L 21.296875 -18.375 L 8.140625 0 L 0.828125 0 L 17.546875 -22.828125 L 1.84375 -44.515625 L 9.09375 -44.515625 L 21.5625 -27.40625 L 33.890625 -44.515625 L 40.828125 -44.515625 L 25.125 -23.015625 L 41.96875 0 Z M 34.65625 0 "/></g></g></g><g fill="#000000" fill-opacity="1"><g transform="translate(252.424344, 321.872792)"><g><path d="M 38.984375 -5.53125 L 38.984375 0 L 6.671875 0 L 6.671875 -44.515625 L 38.09375 -44.515625 L 38.09375 -38.984375 L 13.03125 -38.984375 L 13.03125 -25.3125 L 35.359375 -25.3125 L 35.359375 -19.90625 L 13.03125 -19.90625 L 13.03125 -5.53125 Z M 38.984375 -5.53125 "/></g></g></g><g fill="#000000" fill-opacity="1"><g transform="translate(295.006466, 321.872792)"><g><path d="M 6.671875 -44.515625 L 13.03125 -44.515625 L 13.03125 -5.53125 L 37.140625 -5.53125 L 37.140625 0 L 6.671875 0 Z M 6.671875 -44.515625 "/></g></g></g></svg>